<?xml version="1.0" encoding="UTF-8" standalone="no"?>
<!-- Created with Inkscape (http://www.inkscape.org/) -->

<svg
   xmlns:dc="http://purl.org/dc/elements/1.1/"
   xmlns:cc="http://creativecommons.org/ns#"
   xmlns:rdf="http://www.w3.org/1999/02/22-rdf-syntax-ns#"
   xmlns:svg="http://www.w3.org/2000/svg"
   xmlns="http://www.w3.org/2000/svg"
   xmlns:sodipodi="http://sodipodi.sourceforge.net/DTD/sodipodi-0.dtd"
   xmlns:inkscape="http://www.inkscape.org/namespaces/inkscape"
   width="1052.3622"
   height="744.09448"
   id="svg2"
   version="1.1"
   inkscape:version="0.48.5 r10040"
   sodipodi:docname="New document 1">
  <defs
     id="defs4" />
  <sodipodi:namedview
     id="base"
     pagecolor="#ffffff"
     bordercolor="#666666"
     borderopacity="1.0"
     inkscape:pageopacity="0.0"
     inkscape:pageshadow="2"
     inkscape:zoom="0.79291006"
     inkscape:cx="526.18109"
     inkscape:cy="372.04724"
     inkscape:document-units="px"
     inkscape:current-layer="layer1"
     showgrid="true"
     inkscape:snap-global="false"
     inkscape:window-width="1419"
     inkscape:window-height="776"
     inkscape:window-x="0"
     inkscape:window-y="1"
     inkscape:window-maximized="0">
    <inkscape:grid
       type="xygrid"
       id="grid2987"
       empspacing="5"
       visible="true"
       enabled="true"
       snapvisiblegridlinesonly="true" />
  </sodipodi:namedview>
  <metadata
     id="metadata7">
    <rdf:RDF>
      <cc:Work
         rdf:about="">
        <dc:format>image/svg+xml</dc:format>
        <dc:type
           rdf:resource="http://purl.org/dc/dcmitype/StillImage" />
        <dc:title></dc:title>
      </cc:Work>
    </rdf:RDF>
  </metadata>
  <g
     inkscape:label="Layer 1"
     inkscape:groupmode="layer"
     id="layer1"
     transform="translate(0,-308.2677)">
    <g
       id="g4400"
       transform="translate(10.000006,0)">
      <rect
         style="fill:#ffffff;fill-opacity:1;stroke:#000000;stroke-width:1.03742707;stroke-linecap:square;stroke-linejoin:round;stroke-miterlimit:4;stroke-opacity:1;stroke-dasharray:none;stroke-dashoffset:0"
         id="rect3875"
         width="270.25488"
         height="169.50127"
         x="377.68219"
         y="502.70319" />
      <path
         sodipodi:type="arc"
         style="fill:#0000ff;fill-opacity:1;stroke:none"
         id="path3883"
         sodipodi:cx="135"
         sodipodi:cy="267.36218"
         sodipodi:rx="5"
         sodipodi:ry="5"
         d="m 133.442,272.11325 c -2.62394,-0.86046 -4.05353,-3.68512 -3.19307,-6.30906 0.86046,-2.62395 3.68512,-4.05353 6.30907,-3.19308 2.62394,0.86046 4.05353,3.68513 3.19307,6.30907 -0.85567,2.60935 -3.65561,4.04029 -6.27161,3.20519"
         sodipodi:start="1.8876718"
         sodipodi:end="8.1629841"
         sodipodi:open="true"
         transform="matrix(0.62664166,0,0,0.62626998,379.1854,383.52209)" />
      <path
         style="fill:none;stroke:#ff5555;stroke-width:3.13227892;stroke-linecap:round;stroke-linejoin:miter;stroke-miterlimit:4;stroke-opacity:1;stroke-dasharray:none"
         d="m 398.70426,639.95459 c 16.60839,7.85123 27.3288,-18.82338 35.9145,-36.53469 4.94498,-10.20093 19.07781,-12.21118 28.29439,-20.37687 12.9748,-11.49538 0.18101,-31.2893 18.84335,-36.68339 21.93342,-6.33954 22.82968,13.84912 27.12348,16.7599 4.97747,3.37424 14.9513,-12.20784 22.51624,-13.62109 35.72388,-6.67378 19.02273,25.91418 19.68217,38.06158 2.51206,46.27396 39.68357,23.35917 36.42273,1.80941 -2.78977,-18.43662 -2.83133,-32.57611 20.68091,2.05928 5.20239,7.66352 16.88163,16.55773 23.03521,16.2818"
         id="path3949"
         inkscape:connector-curvature="0"
         sodipodi:nodetypes="cssssssssc" />
      <path
         transform="matrix(0.62664166,0,0,0.62626998,402.72416,369.65679)"
         sodipodi:open="true"
         sodipodi:end="8.1629841"
         sodipodi:start="1.8876718"
         d="m 133.442,272.11325 c -2.62394,-0.86046 -4.05353,-3.68512 -3.19307,-6.30906 0.86046,-2.62395 3.68512,-4.05353 6.30907,-3.19308 2.62394,0.86046 4.05353,3.68513 3.19307,6.30907 -0.85567,2.60935 -3.65561,4.04029 -6.27161,3.20519"
         sodipodi:ry="5"
         sodipodi:rx="5"
         sodipodi:cy="267.36218"
         sodipodi:cx="135"
         id="path4067"
         style="fill:#0000ff;fill-opacity:1;stroke:none"
         sodipodi:type="arc" />
      <path
         transform="matrix(0.62664166,0,0,0.62626998,374.02622,399.32208)"
         sodipodi:open="true"
         sodipodi:end="8.1629841"
         sodipodi:start="1.8876718"
         d="m 133.442,272.11325 c -2.62394,-0.86046 -4.05353,-3.68512 -3.19307,-6.30906 0.86046,-2.62395 3.68512,-4.05353 6.30907,-3.19308 2.62394,0.86046 4.05353,3.68513 3.19307,6.30907 -0.85567,2.60935 -3.65561,4.04029 -6.27161,3.20519"
         sodipodi:ry="5"
         sodipodi:rx="5"
         sodipodi:cy="267.36218"
         sodipodi:cx="135"
         id="path4069"
         style="fill:#0000ff;fill-opacity:1;stroke:none"
         sodipodi:type="arc" />
      <path
         transform="matrix(0.62664166,0,0,0.62626998,404.9813,391.26086)"
         sodipodi:open="true"
         sodipodi:end="8.1629841"
         sodipodi:start="1.8876718"
         d="m 133.442,272.11325 c -2.62394,-0.86046 -4.05353,-3.68512 -3.19307,-6.30906 0.86046,-2.62395 3.68512,-4.05353 6.30907,-3.19308 2.62394,0.86046 4.05353,3.68513 3.19307,6.30907 -0.85567,2.60935 -3.65561,4.04029 -6.27161,3.20519"
         sodipodi:ry="5"
         sodipodi:rx="5"
         sodipodi:cy="267.36218"
         sodipodi:cx="135"
         id="path4071"
         style="fill:#e580ff;fill-opacity:1;stroke:none"
         sodipodi:type="arc" />
      <path
         sodipodi:type="arc"
         style="fill:#0000ff;fill-opacity:1;stroke:none"
         id="path4073"
         sodipodi:cx="135"
         sodipodi:cy="267.36218"
         sodipodi:rx="5"
         sodipodi:ry="5"
         d="m 133.442,272.11325 c -2.62394,-0.86046 -4.05353,-3.68512 -3.19307,-6.30906 0.86046,-2.62395 3.68512,-4.05353 6.30907,-3.19308 2.62394,0.86046 4.05353,3.68513 3.19307,6.30907 -0.85567,2.60935 -3.65561,4.04029 -6.27161,3.20519"
         sodipodi:start="1.8876718"
         sodipodi:end="8.1629841"
         sodipodi:open="true"
         transform="matrix(0.62664166,0,0,0.62626998,433.35679,372.23638)" />
      <path
         sodipodi:type="arc"
         style="fill:#e580ff;fill-opacity:1;stroke:none"
         id="path4075"
         sodipodi:cx="135"
         sodipodi:cy="267.36218"
         sodipodi:rx="5"
         sodipodi:ry="5"
         d="m 133.442,272.11325 c -2.62394,-0.86046 -4.05353,-3.68512 -3.19307,-6.30906 0.86046,-2.62395 3.68512,-4.05353 6.30907,-3.19308 2.62394,0.86046 4.05353,3.68513 3.19307,6.30907 -0.85567,2.60935 -3.65561,4.04029 -6.27161,3.20519"
         sodipodi:start="1.8876718"
         sodipodi:end="8.1629841"
         sodipodi:open="true"
         transform="matrix(0.62664166,0,0,0.62626998,395.63029,401.25677)" />
      <path
         sodipodi:type="arc"
         style="fill:#e580ff;fill-opacity:1;stroke:none"
         id="path4077"
         sodipodi:cx="135"
         sodipodi:cy="267.36218"
         sodipodi:rx="5"
         sodipodi:ry="5"
         d="m 133.442,272.11325 c -2.62394,-0.86046 -4.05353,-3.68512 -3.19307,-6.30906 0.86046,-2.62395 3.68512,-4.05353 6.30907,-3.19308 2.62394,0.86046 4.05353,3.68513 3.19307,6.30907 -0.85567,2.60935 -3.65561,4.04029 -6.27161,3.20519"
         sodipodi:start="1.8876718"
         sodipodi:end="8.1629841"
         sodipodi:open="true"
         transform="matrix(0.62664166,0,0,0.62626998,461.08738,391.90576)" />
      <path
         transform="matrix(0.62664166,0,0,0.62626998,480.11186,386.42413)"
         sodipodi:open="true"
         sodipodi:end="8.1629841"
         sodipodi:start="1.8876718"
         d="m 133.442,272.11325 c -2.62394,-0.86046 -4.05353,-3.68512 -3.19307,-6.30906 0.86046,-2.62395 3.68512,-4.05353 6.30907,-3.19308 2.62394,0.86046 4.05353,3.68513 3.19307,6.30907 -0.85567,2.60935 -3.65561,4.04029 -6.27161,3.20519"
         sodipodi:ry="5"
         sodipodi:rx="5"
         sodipodi:cy="267.36218"
         sodipodi:cx="135"
         id="path4079"
         style="fill:#0000ff;fill-opacity:1;stroke:none"
         sodipodi:type="arc" />
      <path
         transform="matrix(0.62664166,0,0,0.62626998,455.9282,407.70575)"
         sodipodi:open="true"
         sodipodi:end="8.1629841"
         sodipodi:start="1.8876718"
         d="m 133.442,272.11325 c -2.62394,-0.86046 -4.05353,-3.68512 -3.19307,-6.30906 0.86046,-2.62395 3.68512,-4.05353 6.30907,-3.19308 2.62394,0.86046 4.05353,3.68513 3.19307,6.30907 -0.85567,2.60935 -3.65561,4.04029 -6.27161,3.20519"
         sodipodi:ry="5"
         sodipodi:rx="5"
         sodipodi:cy="267.36218"
         sodipodi:cx="135"
         id="path4081"
         style="fill:#e580ff;fill-opacity:1;stroke:none"
         sodipodi:type="arc" />
      <path
         transform="matrix(0.62664166,0,0,0.62626998,455.2833,435.75879)"
         sodipodi:open="true"
         sodipodi:end="8.1629841"
         sodipodi:start="1.8876718"
         d="m 133.442,272.11325 c -2.62394,-0.86046 -4.05353,-3.68512 -3.19307,-6.30906 0.86046,-2.62395 3.68512,-4.05353 6.30907,-3.19308 2.62394,0.86046 4.05353,3.68513 3.19307,6.30907 -0.85567,2.60935 -3.65561,4.04029 -6.27161,3.20519"
         sodipodi:ry="5"
         sodipodi:rx="5"
         sodipodi:cy="267.36218"
         sodipodi:cx="135"
         id="path4083"
         style="fill:#e580ff;fill-opacity:1;stroke:none"
         sodipodi:type="arc" />
      <path
         sodipodi:type="arc"
         style="fill:#0000ff;fill-opacity:1;stroke:none"
         id="path4085"
         sodipodi:cx="135"
         sodipodi:cy="267.36218"
         sodipodi:rx="5"
         sodipodi:ry="5"
         d="m 133.442,272.11325 c -2.62394,-0.86046 -4.05353,-3.68512 -3.19307,-6.30906 0.86046,-2.62395 3.68512,-4.05353 6.30907,-3.19308 2.62394,0.86046 4.05353,3.68513 3.19307,6.30907 -0.85567,2.60935 -3.65561,4.04029 -6.27161,3.20519"
         sodipodi:start="1.8876718"
         sodipodi:end="8.1629841"
         sodipodi:open="true"
         transform="matrix(0.62664166,0,0,0.62626998,478.82206,421.89349)" />
      <path
         sodipodi:type="arc"
         style="fill:#e580ff;fill-opacity:1;stroke:none"
         id="path4087"
         sodipodi:cx="135"
         sodipodi:cy="267.36218"
         sodipodi:rx="5"
         sodipodi:ry="5"
         d="m 133.442,272.11325 c -2.62394,-0.86046 -4.05353,-3.68512 -3.19307,-6.30906 0.86046,-2.62395 3.68512,-4.05353 6.30907,-3.19308 2.62394,0.86046 4.05353,3.68513 3.19307,6.30907 -0.85567,2.60935 -3.65561,4.04029 -6.27161,3.20519"
         sodipodi:start="1.8876718"
         sodipodi:end="8.1629841"
         sodipodi:open="true"
         transform="matrix(0.62664166,0,0,0.62626998,468.18125,454.46082)" />
      <path
         sodipodi:type="arc"
         style="fill:#e580ff;fill-opacity:1;stroke:none"
         id="path4089"
         sodipodi:cx="135"
         sodipodi:cy="267.36218"
         sodipodi:rx="5"
         sodipodi:ry="5"
         d="m 133.442,272.11325 c -2.62394,-0.86046 -4.05353,-3.68512 -3.19307,-6.30906 0.86046,-2.62395 3.68512,-4.05353 6.30907,-3.19308 2.62394,0.86046 4.05353,3.68513 3.19307,6.30907 -0.85567,2.60935 -3.65561,4.04029 -6.27161,3.20519"
         sodipodi:start="1.8876718"
         sodipodi:end="8.1629841"
         sodipodi:open="true"
         transform="matrix(0.62664166,0,0,0.62626998,518.48326,429.30981)" />
      <path
         transform="matrix(0.62664166,0,0,0.62626998,541.69957,425.76287)"
         sodipodi:open="true"
         sodipodi:end="8.1629841"
         sodipodi:start="1.8876718"
         d="m 133.442,272.11325 c -2.62394,-0.86046 -4.05353,-3.68512 -3.19307,-6.30906 0.86046,-2.62395 3.68512,-4.05353 6.30907,-3.19308 2.62394,0.86046 4.05353,3.68513 3.19307,6.30907 -0.85567,2.60935 -3.65561,4.04029 -6.27161,3.20519"
         sodipodi:ry="5"
         sodipodi:rx="5"
         sodipodi:cy="267.36218"
         sodipodi:cx="135"
         id="path4091"
         style="fill:#0000ff;fill-opacity:1;stroke:none"
         sodipodi:type="arc" />
      <path
         transform="matrix(0.62664166,0,0,0.62626998,530.09141,447.04449)"
         sodipodi:open="true"
         sodipodi:end="8.1629841"
         sodipodi:start="1.8876718"
         d="m 133.442,272.11325 c -2.62394,-0.86046 -4.05353,-3.68512 -3.19307,-6.30906 0.86046,-2.62395 3.68512,-4.05353 6.30907,-3.19308 2.62394,0.86046 4.05353,3.68513 3.19307,6.30907 -0.85567,2.60935 -3.65561,4.04029 -6.27161,3.20519"
         sodipodi:ry="5"
         sodipodi:rx="5"
         sodipodi:cy="267.36218"
         sodipodi:cx="135"
         id="path4093"
         style="fill:#e580ff;fill-opacity:1;stroke:none"
         sodipodi:type="arc" />
      <path
         transform="matrix(0.62664166,0,0,0.62626998,427.87515,386.42413)"
         sodipodi:open="true"
         sodipodi:end="8.1629841"
         sodipodi:start="1.8876718"
         d="m 133.442,272.11325 c -2.62394,-0.86046 -4.05353,-3.68512 -3.19307,-6.30906 0.86046,-2.62395 3.68512,-4.05353 6.30907,-3.19308 2.62394,0.86046 4.05353,3.68513 3.19307,6.30907 -0.85567,2.60935 -3.65561,4.04029 -6.27161,3.20519"
         sodipodi:ry="5"
         sodipodi:rx="5"
         sodipodi:cy="267.36218"
         sodipodi:cx="135"
         id="path4095"
         style="fill:#0000ff;fill-opacity:1;stroke:none"
         sodipodi:type="arc" />
      <path
         sodipodi:type="arc"
         style="fill:#0000ff;fill-opacity:1;stroke:none"
         id="path4097"
         sodipodi:cx="135"
         sodipodi:cy="267.36218"
         sodipodi:rx="5"
         sodipodi:ry="5"
         d="m 133.442,272.11325 c -2.62394,-0.86046 -4.05353,-3.68512 -3.19307,-6.30906 0.86046,-2.62395 3.68512,-4.05353 6.30907,-3.19308 2.62394,0.86046 4.05353,3.68513 3.19307,6.30907 -0.85567,2.60935 -3.65561,4.04029 -6.27161,3.20519"
         sodipodi:start="1.8876718"
         sodipodi:end="8.1629841"
         sodipodi:open="true"
         transform="matrix(0.62664166,0,0,0.62626998,454.31595,371.59148)" />
      <path
         sodipodi:type="arc"
         style="fill:#e580ff;fill-opacity:1;stroke:none"
         id="path4099"
         sodipodi:cx="135"
         sodipodi:cy="267.36218"
         sodipodi:rx="5"
         sodipodi:ry="5"
         d="m 133.442,272.11325 c -2.62394,-0.86046 -4.05353,-3.68512 -3.19307,-6.30906 0.86046,-2.62395 3.68512,-4.05353 6.30907,-3.19308 2.62394,0.86046 4.05353,3.68513 3.19307,6.30907 -0.85567,2.60935 -3.65561,4.04029 -6.27161,3.20519"
         sodipodi:start="1.8876718"
         sodipodi:end="8.1629841"
         sodipodi:open="true"
         transform="matrix(0.62664166,0,0,0.62626998,420.13638,411.57513)" />
      <path
         sodipodi:type="arc"
         style="fill:#e580ff;fill-opacity:1;stroke:none"
         id="path4101"
         sodipodi:cx="135"
         sodipodi:cy="267.36218"
         sodipodi:rx="5"
         sodipodi:ry="5"
         d="m 133.442,272.11325 c -2.62394,-0.86046 -4.05353,-3.68512 -3.19307,-6.30906 0.86046,-2.62395 3.68512,-4.05353 6.30907,-3.19308 2.62394,0.86046 4.05353,3.68513 3.19307,6.30907 -0.85567,2.60935 -3.65561,4.04029 -6.27161,3.20519"
         sodipodi:start="1.8876718"
         sodipodi:end="8.1629841"
         sodipodi:open="true"
         transform="matrix(0.62664166,0,0,0.62626998,358.54867,445.1098)" />
      <path
         transform="matrix(0.62664166,0,0,0.62626998,362.7405,411.57512)"
         sodipodi:open="true"
         sodipodi:end="8.1629841"
         sodipodi:start="1.8876718"
         d="m 133.442,272.11325 c -2.62394,-0.86046 -4.05353,-3.68512 -3.19307,-6.30906 0.86046,-2.62395 3.68512,-4.05353 6.30907,-3.19308 2.62394,0.86046 4.05353,3.68513 3.19307,6.30907 -0.85567,2.60935 -3.65561,4.04029 -6.27161,3.20519"
         sodipodi:ry="5"
         sodipodi:rx="5"
         sodipodi:cy="267.36218"
         sodipodi:cx="135"
         id="path4103"
         style="fill:#0000ff;fill-opacity:1;stroke:none"
         sodipodi:type="arc" />
      <path
         transform="matrix(0.62664166,0,0,0.62626998,336.2997,439.30572)"
         sodipodi:open="true"
         sodipodi:end="8.1629841"
         sodipodi:start="1.8876718"
         d="m 133.442,272.11325 c -2.62394,-0.86046 -4.05353,-3.68512 -3.19307,-6.30906 0.86046,-2.62395 3.68512,-4.05353 6.30907,-3.19308 2.62394,0.86046 4.05353,3.68513 3.19307,6.30907 -0.85567,2.60935 -3.65561,4.04029 -6.27161,3.20519"
         sodipodi:ry="5"
         sodipodi:rx="5"
         sodipodi:cy="267.36218"
         sodipodi:cx="135"
         id="path4105"
         style="fill:#0000ff;fill-opacity:1;stroke:none"
         sodipodi:type="arc" />
      <path
         transform="matrix(0.62664166,0,0,0.62626998,372.41397,436.40369)"
         sodipodi:open="true"
         sodipodi:end="8.1629841"
         sodipodi:start="1.8876718"
         d="m 133.442,272.11325 c -2.62394,-0.86046 -4.05353,-3.68512 -3.19307,-6.30906 0.86046,-2.62395 3.68512,-4.05353 6.30907,-3.19308 2.62394,0.86046 4.05353,3.68513 3.19307,6.30907 -0.85567,2.60935 -3.65561,4.04029 -6.27161,3.20519"
         sodipodi:ry="5"
         sodipodi:rx="5"
         sodipodi:cy="267.36218"
         sodipodi:cx="135"
         id="path4107"
         style="fill:#e580ff;fill-opacity:1;stroke:none"
         sodipodi:type="arc" />
      <path
         sodipodi:type="arc"
         style="fill:#e580ff;fill-opacity:1;stroke:none"
         id="path4109"
         sodipodi:cx="135"
         sodipodi:cy="267.36218"
         sodipodi:rx="5"
         sodipodi:ry="5"
         d="m 133.442,272.11325 c -2.62394,-0.86046 -4.05353,-3.68512 -3.19307,-6.30906 0.86046,-2.62395 3.68512,-4.05353 6.30907,-3.19308 2.62394,0.86046 4.05353,3.68513 3.19307,6.30907 -0.85567,2.60935 -3.65561,4.04029 -6.27161,3.20519"
         sodipodi:start="1.8876718"
         sodipodi:end="8.1629841"
         sodipodi:open="true"
         transform="matrix(0.62664166,0,0,0.62626998,386.60171,424.15063)" />
      <path
         sodipodi:type="arc"
         style="fill:#0000ff;fill-opacity:1;stroke:none"
         id="path4111"
         sodipodi:cx="135"
         sodipodi:cy="267.36218"
         sodipodi:rx="5"
         sodipodi:ry="5"
         d="m 133.442,272.11325 c -2.62394,-0.86046 -4.05353,-3.68512 -3.19307,-6.30906 0.86046,-2.62395 3.68512,-4.05353 6.30907,-3.19308 2.62394,0.86046 4.05353,3.68513 3.19307,6.30907 -0.85567,2.60935 -3.65561,4.04029 -6.27161,3.20519"
         sodipodi:start="1.8876718"
         sodipodi:end="8.1629841"
         sodipodi:open="true"
         transform="matrix(0.62664166,0,0,0.62626998,313.40584,463.81183)" />
      <path
         sodipodi:type="arc"
         style="fill:#e580ff;fill-opacity:1;stroke:none"
         id="path4113"
         sodipodi:cx="135"
         sodipodi:cy="267.36218"
         sodipodi:rx="5"
         sodipodi:ry="5"
         d="m 133.442,272.11325 c -2.62394,-0.86046 -4.05353,-3.68512 -3.19307,-6.30906 0.86046,-2.62395 3.68512,-4.05353 6.30907,-3.19308 2.62394,0.86046 4.05353,3.68513 3.19307,6.30907 -0.85567,2.60935 -3.65561,4.04029 -6.27161,3.20519"
         sodipodi:start="1.8876718"
         sodipodi:end="8.1629841"
         sodipodi:open="true"
         transform="matrix(0.62664166,0,0,0.62626998,345.32828,464.77918)" />
      <path
         transform="matrix(0.62664166,0,0,0.62626998,343.71603,415.44452)"
         sodipodi:open="true"
         sodipodi:end="8.1629841"
         sodipodi:start="1.8876718"
         d="m 133.442,272.11325 c -2.62394,-0.86046 -4.05353,-3.68512 -3.19307,-6.30906 0.86046,-2.62395 3.68512,-4.05353 6.30907,-3.19308 2.62394,0.86046 4.05353,3.68513 3.19307,6.30907 -0.85567,2.60935 -3.65561,4.04029 -6.27161,3.20519"
         sodipodi:ry="5"
         sodipodi:rx="5"
         sodipodi:cy="267.36218"
         sodipodi:cx="135"
         id="path4115"
         style="fill:#0000ff;fill-opacity:1;stroke:none"
         sodipodi:type="arc" />
      <path
         transform="matrix(0.62664166,0,0,0.62626998,327.59359,454.78327)"
         sodipodi:open="true"
         sodipodi:end="8.1629841"
         sodipodi:start="1.8876718"
         d="m 133.442,272.11325 c -2.62394,-0.86046 -4.05353,-3.68512 -3.19307,-6.30906 0.86046,-2.62395 3.68512,-4.05353 6.30907,-3.19308 2.62394,0.86046 4.05353,3.68513 3.19307,6.30907 -0.85567,2.60935 -3.65561,4.04029 -6.27161,3.20519"
         sodipodi:ry="5"
         sodipodi:rx="5"
         sodipodi:cy="267.36218"
         sodipodi:cx="135"
         id="path4117"
         style="fill:#0000ff;fill-opacity:1;stroke:none"
         sodipodi:type="arc" />
      <path
         transform="matrix(0.62664166,0,0,0.62626998,490.43021,419.3139)"
         sodipodi:open="true"
         sodipodi:end="8.1629841"
         sodipodi:start="1.8876718"
         d="m 133.442,272.11325 c -2.62394,-0.86046 -4.05353,-3.68512 -3.19307,-6.30906 0.86046,-2.62395 3.68512,-4.05353 6.30907,-3.19308 2.62394,0.86046 4.05353,3.68513 3.19307,6.30907 -0.85567,2.60935 -3.65561,4.04029 -6.27161,3.20519"
         sodipodi:ry="5"
         sodipodi:rx="5"
         sodipodi:cy="267.36218"
         sodipodi:cx="135"
         id="path4119"
         style="fill:#0000ff;fill-opacity:1;stroke:none"
         sodipodi:type="arc" />
      <path
         sodipodi:type="arc"
         style="fill:#0000ff;fill-opacity:1;stroke:none"
         id="path4121"
         sodipodi:cx="135"
         sodipodi:cy="267.36218"
         sodipodi:rx="5"
         sodipodi:ry="5"
         d="m 133.442,272.11325 c -2.62394,-0.86046 -4.05353,-3.68512 -3.19307,-6.30906 0.86046,-2.62395 3.68512,-4.05353 6.30907,-3.19308 2.62394,0.86046 4.05353,3.68513 3.19307,6.30907 -0.85567,2.60935 -3.65561,4.04029 -6.27161,3.20519"
         sodipodi:start="1.8876718"
         sodipodi:end="8.1629841"
         sodipodi:open="true"
         transform="matrix(0.62664166,0,0,0.62626998,517.83836,402.22412)" />
      <path
         sodipodi:type="arc"
         style="fill:#0000ff;fill-opacity:1;stroke:none"
         id="path4123"
         sodipodi:cx="135"
         sodipodi:cy="267.36218"
         sodipodi:rx="5"
         sodipodi:ry="5"
         d="m 133.442,272.11325 c -2.62394,-0.86046 -4.05353,-3.68512 -3.19307,-6.30906 0.86046,-2.62395 3.68512,-4.05353 6.30907,-3.19308 2.62394,0.86046 4.05353,3.68513 3.19307,6.30907 -0.85567,2.60935 -3.65561,4.04029 -6.27161,3.20519"
         sodipodi:start="1.8876718"
         sodipodi:end="8.1629841"
         sodipodi:open="true"
         transform="matrix(0.62664166,0,0,0.62626998,486.88328,435.75879)" />
      <path
         sodipodi:type="arc"
         style="fill:#e580ff;fill-opacity:1;stroke:none"
         id="path4125"
         sodipodi:cx="135"
         sodipodi:cy="267.36218"
         sodipodi:rx="5"
         sodipodi:ry="5"
         d="m 133.442,272.11325 c -2.62394,-0.86046 -4.05353,-3.68512 -3.19307,-6.30906 0.86046,-2.62395 3.68512,-4.05353 6.30907,-3.19308 2.62394,0.86046 4.05353,3.68513 3.19307,6.30907 -0.85567,2.60935 -3.65561,4.04029 -6.27161,3.20519"
         sodipodi:start="1.8876718"
         sodipodi:end="8.1629841"
         sodipodi:open="true"
         transform="matrix(0.62664166,0,0,0.62626998,443.35269,399.32208)" />
      <path
         transform="matrix(0.62664166,0,0,0.62626998,489.46286,458.65265)"
         sodipodi:open="true"
         sodipodi:end="8.1629841"
         sodipodi:start="1.8876718"
         d="m 133.442,272.11325 c -2.62394,-0.86046 -4.05353,-3.68512 -3.19307,-6.30906 0.86046,-2.62395 3.68512,-4.05353 6.30907,-3.19308 2.62394,0.86046 4.05353,3.68513 3.19307,6.30907 -0.85567,2.60935 -3.65561,4.04029 -6.27161,3.20519"
         sodipodi:ry="5"
         sodipodi:rx="5"
         sodipodi:cy="267.36218"
         sodipodi:cx="135"
         id="path4127"
         style="fill:#e580ff;fill-opacity:1;stroke:none"
         sodipodi:type="arc" />
      <path
         sodipodi:type="arc"
         style="fill:#0000ff;fill-opacity:1;stroke:none"
         id="path4129"
         sodipodi:cx="135"
         sodipodi:cy="267.36218"
         sodipodi:rx="5"
         sodipodi:ry="5"
         d="m 133.442,272.11325 c -2.62394,-0.86046 -4.05353,-3.68512 -3.19307,-6.30906 0.86046,-2.62395 3.68512,-4.05353 6.30907,-3.19308 2.62394,0.86046 4.05353,3.68513 3.19307,6.30907 -0.85567,2.60935 -3.65561,4.04029 -6.27161,3.20519"
         sodipodi:start="1.8876718"
         sodipodi:end="8.1629841"
         sodipodi:open="true"
         transform="matrix(0.62664166,0,0,0.62626998,493.33225,398.67718)" />
      <path
         transform="matrix(0.62664166,0,0,0.62626998,508.16489,415.44452)"
         sodipodi:open="true"
         sodipodi:end="8.1629841"
         sodipodi:start="1.8876718"
         d="m 133.442,272.11325 c -2.62394,-0.86046 -4.05353,-3.68512 -3.19307,-6.30906 0.86046,-2.62395 3.68512,-4.05353 6.30907,-3.19308 2.62394,0.86046 4.05353,3.68513 3.19307,6.30907 -0.85567,2.60935 -3.65561,4.04029 -6.27161,3.20519"
         sodipodi:ry="5"
         sodipodi:rx="5"
         sodipodi:cy="267.36218"
         sodipodi:cx="135"
         id="path4131"
         style="fill:#e580ff;fill-opacity:1;stroke:none"
         sodipodi:type="arc" />
      <path
         sodipodi:type="arc"
         style="fill:#e580ff;fill-opacity:1;stroke:none"
         id="path4133"
         sodipodi:cx="135"
         sodipodi:cy="267.36218"
         sodipodi:rx="5"
         sodipodi:ry="5"
         d="m 133.442,272.11325 c -2.62394,-0.86046 -4.05353,-3.68512 -3.19307,-6.30906 0.86046,-2.62395 3.68512,-4.05353 6.30907,-3.19308 2.62394,0.86046 4.05353,3.68513 3.19307,6.30907 -0.85567,2.60935 -3.65561,4.04029 -6.27161,3.20519"
         sodipodi:start="1.8876718"
         sodipodi:end="8.1629841"
         sodipodi:open="true"
         transform="matrix(0.62664166,0,0,0.62626998,506.2302,446.3996)" />
    </g>
    <g
       id="g4439"
       transform="translate(-300,0)">
      <rect
         y="502.70319"
         x="377.68219"
         height="169.50127"
         width="270.25488"
         id="rect4441"
         style="fill:#ffffff;fill-opacity:1;stroke:#000000;stroke-width:1.03742707;stroke-linecap:square;stroke-linejoin:round;stroke-miterlimit:4;stroke-opacity:1;stroke-dasharray:none;stroke-dashoffset:0" />
      <path
         transform="matrix(0.62664166,0,0,0.62626998,379.1854,383.52209)"
         sodipodi:open="true"
         sodipodi:end="8.1629841"
         sodipodi:start="1.8876718"
         d="m 133.442,272.11325 c -2.62394,-0.86046 -4.05353,-3.68512 -3.19307,-6.30906 0.86046,-2.62395 3.68512,-4.05353 6.30907,-3.19308 2.62394,0.86046 4.05353,3.68513 3.19307,6.30907 -0.85567,2.60935 -3.65561,4.04029 -6.27161,3.20519"
         sodipodi:ry="5"
         sodipodi:rx="5"
         sodipodi:cy="267.36218"
         sodipodi:cx="135"
         id="path4443"
         style="fill:#0000ff;fill-opacity:1;stroke:none"
         sodipodi:type="arc" />
      <path
         sodipodi:nodetypes="cc"
         inkscape:connector-curvature="0"
         id="path4445"
         d="M 398.70426,599.69358 631.21724,567.44951"
         style="fill:none;stroke:#ff5555;stroke-width:3.13227892;stroke-linecap:round;stroke-linejoin:miter;stroke-miterlimit:4;stroke-opacity:1;stroke-dasharray:none" />
      <path
         sodipodi:type="arc"
         style="fill:#0000ff;fill-opacity:1;stroke:none"
         id="path4447"
         sodipodi:cx="135"
         sodipodi:cy="267.36218"
         sodipodi:rx="5"
         sodipodi:ry="5"
         d="m 133.442,272.11325 c -2.62394,-0.86046 -4.05353,-3.68512 -3.19307,-6.30906 0.86046,-2.62395 3.68512,-4.05353 6.30907,-3.19308 2.62394,0.86046 4.05353,3.68513 3.19307,6.30907 -0.85567,2.60935 -3.65561,4.04029 -6.27161,3.20519"
         sodipodi:start="1.8876718"
         sodipodi:end="8.1629841"
         sodipodi:open="true"
         transform="matrix(0.62664166,0,0,0.62626998,402.72416,369.65679)" />
      <path
         sodipodi:type="arc"
         style="fill:#0000ff;fill-opacity:1;stroke:none"
         id="path4449"
         sodipodi:cx="135"
         sodipodi:cy="267.36218"
         sodipodi:rx="5"
         sodipodi:ry="5"
         d="m 133.442,272.11325 c -2.62394,-0.86046 -4.05353,-3.68512 -3.19307,-6.30906 0.86046,-2.62395 3.68512,-4.05353 6.30907,-3.19308 2.62394,0.86046 4.05353,3.68513 3.19307,6.30907 -0.85567,2.60935 -3.65561,4.04029 -6.27161,3.20519"
         sodipodi:start="1.8876718"
         sodipodi:end="8.1629841"
         sodipodi:open="true"
         transform="matrix(0.62664166,0,0,0.62626998,374.02622,399.32208)" />
      <path
         sodipodi:type="arc"
         style="fill:#e580ff;fill-opacity:1;stroke:none"
         id="path4451"
         sodipodi:cx="135"
         sodipodi:cy="267.36218"
         sodipodi:rx="5"
         sodipodi:ry="5"
         d="m 133.442,272.11325 c -2.62394,-0.86046 -4.05353,-3.68512 -3.19307,-6.30906 0.86046,-2.62395 3.68512,-4.05353 6.30907,-3.19308 2.62394,0.86046 4.05353,3.68513 3.19307,6.30907 -0.85567,2.60935 -3.65561,4.04029 -6.27161,3.20519"
         sodipodi:start="1.8876718"
         sodipodi:end="8.1629841"
         sodipodi:open="true"
         transform="matrix(0.62664166,0,0,0.62626998,404.9813,391.26086)" />
      <path
         transform="matrix(0.62664166,0,0,0.62626998,433.35679,372.23638)"
         sodipodi:open="true"
         sodipodi:end="8.1629841"
         sodipodi:start="1.8876718"
         d="m 133.442,272.11325 c -2.62394,-0.86046 -4.05353,-3.68512 -3.19307,-6.30906 0.86046,-2.62395 3.68512,-4.05353 6.30907,-3.19308 2.62394,0.86046 4.05353,3.68513 3.19307,6.30907 -0.85567,2.60935 -3.65561,4.04029 -6.27161,3.20519"
         sodipodi:ry="5"
         sodipodi:rx="5"
         sodipodi:cy="267.36218"
         sodipodi:cx="135"
         id="path4453"
         style="fill:#0000ff;fill-opacity:1;stroke:none"
         sodipodi:type="arc" />
      <path
         transform="matrix(0.62664166,0,0,0.62626998,395.63029,401.25677)"
         sodipodi:open="true"
         sodipodi:end="8.1629841"
         sodipodi:start="1.8876718"
         d="m 133.442,272.11325 c -2.62394,-0.86046 -4.05353,-3.68512 -3.19307,-6.30906 0.86046,-2.62395 3.68512,-4.05353 6.30907,-3.19308 2.62394,0.86046 4.05353,3.68513 3.19307,6.30907 -0.85567,2.60935 -3.65561,4.04029 -6.27161,3.20519"
         sodipodi:ry="5"
         sodipodi:rx="5"
         sodipodi:cy="267.36218"
         sodipodi:cx="135"
         id="path4455"
         style="fill:#e580ff;fill-opacity:1;stroke:none"
         sodipodi:type="arc" />
      <path
         transform="matrix(0.62664166,0,0,0.62626998,461.08738,391.90576)"
         sodipodi:open="true"
         sodipodi:end="8.1629841"
         sodipodi:start="1.8876718"
         d="m 133.442,272.11325 c -2.62394,-0.86046 -4.05353,-3.68512 -3.19307,-6.30906 0.86046,-2.62395 3.68512,-4.05353 6.30907,-3.19308 2.62394,0.86046 4.05353,3.68513 3.19307,6.30907 -0.85567,2.60935 -3.65561,4.04029 -6.27161,3.20519"
         sodipodi:ry="5"
         sodipodi:rx="5"
         sodipodi:cy="267.36218"
         sodipodi:cx="135"
         id="path4457"
         style="fill:#e580ff;fill-opacity:1;stroke:none"
         sodipodi:type="arc" />
      <path
         sodipodi:type="arc"
         style="fill:#0000ff;fill-opacity:1;stroke:none"
         id="path4459"
         sodipodi:cx="135"
         sodipodi:cy="267.36218"
         sodipodi:rx="5"
         sodipodi:ry="5"
         d="m 133.442,272.11325 c -2.62394,-0.86046 -4.05353,-3.68512 -3.19307,-6.30906 0.86046,-2.62395 3.68512,-4.05353 6.30907,-3.19308 2.62394,0.86046 4.05353,3.68513 3.19307,6.30907 -0.85567,2.60935 -3.65561,4.04029 -6.27161,3.20519"
         sodipodi:start="1.8876718"
         sodipodi:end="8.1629841"
         sodipodi:open="true"
         transform="matrix(0.62664166,0,0,0.62626998,480.11186,386.42413)" />
      <path
         sodipodi:type="arc"
         style="fill:#e580ff;fill-opacity:1;stroke:none"
         id="path4461"
         sodipodi:cx="135"
         sodipodi:cy="267.36218"
         sodipodi:rx="5"
         sodipodi:ry="5"
         d="m 133.442,272.11325 c -2.62394,-0.86046 -4.05353,-3.68512 -3.19307,-6.30906 0.86046,-2.62395 3.68512,-4.05353 6.30907,-3.19308 2.62394,0.86046 4.05353,3.68513 3.19307,6.30907 -0.85567,2.60935 -3.65561,4.04029 -6.27161,3.20519"
         sodipodi:start="1.8876718"
         sodipodi:end="8.1629841"
         sodipodi:open="true"
         transform="matrix(0.62664166,0,0,0.62626998,455.9282,407.70575)" />
      <path
         sodipodi:type="arc"
         style="fill:#e580ff;fill-opacity:1;stroke:none"
         id="path4463"
         sodipodi:cx="135"
         sodipodi:cy="267.36218"
         sodipodi:rx="5"
         sodipodi:ry="5"
         d="m 133.442,272.11325 c -2.62394,-0.86046 -4.05353,-3.68512 -3.19307,-6.30906 0.86046,-2.62395 3.68512,-4.05353 6.30907,-3.19308 2.62394,0.86046 4.05353,3.68513 3.19307,6.30907 -0.85567,2.60935 -3.65561,4.04029 -6.27161,3.20519"
         sodipodi:start="1.8876718"
         sodipodi:end="8.1629841"
         sodipodi:open="true"
         transform="matrix(0.62664166,0,0,0.62626998,455.2833,435.75879)" />
      <path
         transform="matrix(0.62664166,0,0,0.62626998,478.82206,421.89349)"
         sodipodi:open="true"
         sodipodi:end="8.1629841"
         sodipodi:start="1.8876718"
         d="m 133.442,272.11325 c -2.62394,-0.86046 -4.05353,-3.68512 -3.19307,-6.30906 0.86046,-2.62395 3.68512,-4.05353 6.30907,-3.19308 2.62394,0.86046 4.05353,3.68513 3.19307,6.30907 -0.85567,2.60935 -3.65561,4.04029 -6.27161,3.20519"
         sodipodi:ry="5"
         sodipodi:rx="5"
         sodipodi:cy="267.36218"
         sodipodi:cx="135"
         id="path4465"
         style="fill:#0000ff;fill-opacity:1;stroke:none"
         sodipodi:type="arc" />
      <path
         transform="matrix(0.62664166,0,0,0.62626998,468.18125,454.46082)"
         sodipodi:open="true"
         sodipodi:end="8.1629841"
         sodipodi:start="1.8876718"
         d="m 133.442,272.11325 c -2.62394,-0.86046 -4.05353,-3.68512 -3.19307,-6.30906 0.86046,-2.62395 3.68512,-4.05353 6.30907,-3.19308 2.62394,0.86046 4.05353,3.68513 3.19307,6.30907 -0.85567,2.60935 -3.65561,4.04029 -6.27161,3.20519"
         sodipodi:ry="5"
         sodipodi:rx="5"
         sodipodi:cy="267.36218"
         sodipodi:cx="135"
         id="path4467"
         style="fill:#e580ff;fill-opacity:1;stroke:none"
         sodipodi:type="arc" />
      <path
         transform="matrix(0.62664166,0,0,0.62626998,518.48326,429.30981)"
         sodipodi:open="true"
         sodipodi:end="8.1629841"
         sodipodi:start="1.8876718"
         d="m 133.442,272.11325 c -2.62394,-0.86046 -4.05353,-3.68512 -3.19307,-6.30906 0.86046,-2.62395 3.68512,-4.05353 6.30907,-3.19308 2.62394,0.86046 4.05353,3.68513 3.19307,6.30907 -0.85567,2.60935 -3.65561,4.04029 -6.27161,3.20519"
         sodipodi:ry="5"
         sodipodi:rx="5"
         sodipodi:cy="267.36218"
         sodipodi:cx="135"
         id="path4469"
         style="fill:#e580ff;fill-opacity:1;stroke:none"
         sodipodi:type="arc" />
      <path
         sodipodi:type="arc"
         style="fill:#0000ff;fill-opacity:1;stroke:none"
         id="path4471"
         sodipodi:cx="135"
         sodipodi:cy="267.36218"
         sodipodi:rx="5"
         sodipodi:ry="5"
         d="m 133.442,272.11325 c -2.62394,-0.86046 -4.05353,-3.68512 -3.19307,-6.30906 0.86046,-2.62395 3.68512,-4.05353 6.30907,-3.19308 2.62394,0.86046 4.05353,3.68513 3.19307,6.30907 -0.85567,2.60935 -3.65561,4.04029 -6.27161,3.20519"
         sodipodi:start="1.8876718"
         sodipodi:end="8.1629841"
         sodipodi:open="true"
         transform="matrix(0.62664166,0,0,0.62626998,541.69957,425.76287)" />
      <path
         sodipodi:type="arc"
         style="fill:#e580ff;fill-opacity:1;stroke:none"
         id="path4473"
         sodipodi:cx="135"
         sodipodi:cy="267.36218"
         sodipodi:rx="5"
         sodipodi:ry="5"
         d="m 133.442,272.11325 c -2.62394,-0.86046 -4.05353,-3.68512 -3.19307,-6.30906 0.86046,-2.62395 3.68512,-4.05353 6.30907,-3.19308 2.62394,0.86046 4.05353,3.68513 3.19307,6.30907 -0.85567,2.60935 -3.65561,4.04029 -6.27161,3.20519"
         sodipodi:start="1.8876718"
         sodipodi:end="8.1629841"
         sodipodi:open="true"
         transform="matrix(0.62664166,0,0,0.62626998,530.09141,447.04449)" />
      <path
         sodipodi:type="arc"
         style="fill:#0000ff;fill-opacity:1;stroke:none"
         id="path4475"
         sodipodi:cx="135"
         sodipodi:cy="267.36218"
         sodipodi:rx="5"
         sodipodi:ry="5"
         d="m 133.442,272.11325 c -2.62394,-0.86046 -4.05353,-3.68512 -3.19307,-6.30906 0.86046,-2.62395 3.68512,-4.05353 6.30907,-3.19308 2.62394,0.86046 4.05353,3.68513 3.19307,6.30907 -0.85567,2.60935 -3.65561,4.04029 -6.27161,3.20519"
         sodipodi:start="1.8876718"
         sodipodi:end="8.1629841"
         sodipodi:open="true"
         transform="matrix(0.62664166,0,0,0.62626998,427.87515,386.42413)" />
      <path
         transform="matrix(0.62664166,0,0,0.62626998,454.31595,371.59148)"
         sodipodi:open="true"
         sodipodi:end="8.1629841"
         sodipodi:start="1.8876718"
         d="m 133.442,272.11325 c -2.62394,-0.86046 -4.05353,-3.68512 -3.19307,-6.30906 0.86046,-2.62395 3.68512,-4.05353 6.30907,-3.19308 2.62394,0.86046 4.05353,3.68513 3.19307,6.30907 -0.85567,2.60935 -3.65561,4.04029 -6.27161,3.20519"
         sodipodi:ry="5"
         sodipodi:rx="5"
         sodipodi:cy="267.36218"
         sodipodi:cx="135"
         id="path4477"
         style="fill:#0000ff;fill-opacity:1;stroke:none"
         sodipodi:type="arc" />
      <path
         transform="matrix(0.62664166,0,0,0.62626998,420.13638,411.57513)"
         sodipodi:open="true"
         sodipodi:end="8.1629841"
         sodipodi:start="1.8876718"
         d="m 133.442,272.11325 c -2.62394,-0.86046 -4.05353,-3.68512 -3.19307,-6.30906 0.86046,-2.62395 3.68512,-4.05353 6.30907,-3.19308 2.62394,0.86046 4.05353,3.68513 3.19307,6.30907 -0.85567,2.60935 -3.65561,4.04029 -6.27161,3.20519"
         sodipodi:ry="5"
         sodipodi:rx="5"
         sodipodi:cy="267.36218"
         sodipodi:cx="135"
         id="path4479"
         style="fill:#e580ff;fill-opacity:1;stroke:none"
         sodipodi:type="arc" />
      <path
         transform="matrix(0.62664166,0,0,0.62626998,358.54867,445.1098)"
         sodipodi:open="true"
         sodipodi:end="8.1629841"
         sodipodi:start="1.8876718"
         d="m 133.442,272.11325 c -2.62394,-0.86046 -4.05353,-3.68512 -3.19307,-6.30906 0.86046,-2.62395 3.68512,-4.05353 6.30907,-3.19308 2.62394,0.86046 4.05353,3.68513 3.19307,6.30907 -0.85567,2.60935 -3.65561,4.04029 -6.27161,3.20519"
         sodipodi:ry="5"
         sodipodi:rx="5"
         sodipodi:cy="267.36218"
         sodipodi:cx="135"
         id="path4481"
         style="fill:#e580ff;fill-opacity:1;stroke:none"
         sodipodi:type="arc" />
      <path
         sodipodi:type="arc"
         style="fill:#0000ff;fill-opacity:1;stroke:none"
         id="path4483"
         sodipodi:cx="135"
         sodipodi:cy="267.36218"
         sodipodi:rx="5"
         sodipodi:ry="5"
         d="m 133.442,272.11325 c -2.62394,-0.86046 -4.05353,-3.68512 -3.19307,-6.30906 0.86046,-2.62395 3.68512,-4.05353 6.30907,-3.19308 2.62394,0.86046 4.05353,3.68513 3.19307,6.30907 -0.85567,2.60935 -3.65561,4.04029 -6.27161,3.20519"
         sodipodi:start="1.8876718"
         sodipodi:end="8.1629841"
         sodipodi:open="true"
         transform="matrix(0.62664166,0,0,0.62626998,362.7405,411.57512)" />
      <path
         sodipodi:type="arc"
         style="fill:#0000ff;fill-opacity:1;stroke:none"
         id="path4485"
         sodipodi:cx="135"
         sodipodi:cy="267.36218"
         sodipodi:rx="5"
         sodipodi:ry="5"
         d="m 133.442,272.11325 c -2.62394,-0.86046 -4.05353,-3.68512 -3.19307,-6.30906 0.86046,-2.62395 3.68512,-4.05353 6.30907,-3.19308 2.62394,0.86046 4.05353,3.68513 3.19307,6.30907 -0.85567,2.60935 -3.65561,4.04029 -6.27161,3.20519"
         sodipodi:start="1.8876718"
         sodipodi:end="8.1629841"
         sodipodi:open="true"
         transform="matrix(0.62664166,0,0,0.62626998,336.2997,439.30572)" />
      <path
         sodipodi:type="arc"
         style="fill:#e580ff;fill-opacity:1;stroke:none"
         id="path4487"
         sodipodi:cx="135"
         sodipodi:cy="267.36218"
         sodipodi:rx="5"
         sodipodi:ry="5"
         d="m 133.442,272.11325 c -2.62394,-0.86046 -4.05353,-3.68512 -3.19307,-6.30906 0.86046,-2.62395 3.68512,-4.05353 6.30907,-3.19308 2.62394,0.86046 4.05353,3.68513 3.19307,6.30907 -0.85567,2.60935 -3.65561,4.04029 -6.27161,3.20519"
         sodipodi:start="1.8876718"
         sodipodi:end="8.1629841"
         sodipodi:open="true"
         transform="matrix(0.62664166,0,0,0.62626998,372.41397,436.40369)" />
      <path
         transform="matrix(0.62664166,0,0,0.62626998,386.60171,424.15063)"
         sodipodi:open="true"
         sodipodi:end="8.1629841"
         sodipodi:start="1.8876718"
         d="m 133.442,272.11325 c -2.62394,-0.86046 -4.05353,-3.68512 -3.19307,-6.30906 0.86046,-2.62395 3.68512,-4.05353 6.30907,-3.19308 2.62394,0.86046 4.05353,3.68513 3.19307,6.30907 -0.85567,2.60935 -3.65561,4.04029 -6.27161,3.20519"
         sodipodi:ry="5"
         sodipodi:rx="5"
         sodipodi:cy="267.36218"
         sodipodi:cx="135"
         id="path4489"
         style="fill:#e580ff;fill-opacity:1;stroke:none"
         sodipodi:type="arc" />
      <path
         transform="matrix(0.62664166,0,0,0.62626998,313.40584,463.81183)"
         sodipodi:open="true"
         sodipodi:end="8.1629841"
         sodipodi:start="1.8876718"
         d="m 133.442,272.11325 c -2.62394,-0.86046 -4.05353,-3.68512 -3.19307,-6.30906 0.86046,-2.62395 3.68512,-4.05353 6.30907,-3.19308 2.62394,0.86046 4.05353,3.68513 3.19307,6.30907 -0.85567,2.60935 -3.65561,4.04029 -6.27161,3.20519"
         sodipodi:ry="5"
         sodipodi:rx="5"
         sodipodi:cy="267.36218"
         sodipodi:cx="135"
         id="path4491"
         style="fill:#0000ff;fill-opacity:1;stroke:none"
         sodipodi:type="arc" />
      <path
         transform="matrix(0.62664166,0,0,0.62626998,345.32828,464.77918)"
         sodipodi:open="true"
         sodipodi:end="8.1629841"
         sodipodi:start="1.8876718"
         d="m 133.442,272.11325 c -2.62394,-0.86046 -4.05353,-3.68512 -3.19307,-6.30906 0.86046,-2.62395 3.68512,-4.05353 6.30907,-3.19308 2.62394,0.86046 4.05353,3.68513 3.19307,6.30907 -0.85567,2.60935 -3.65561,4.04029 -6.27161,3.20519"
         sodipodi:ry="5"
         sodipodi:rx="5"
         sodipodi:cy="267.36218"
         sodipodi:cx="135"
         id="path4493"
         style="fill:#e580ff;fill-opacity:1;stroke:none"
         sodipodi:type="arc" />
      <path
         sodipodi:type="arc"
         style="fill:#0000ff;fill-opacity:1;stroke:none"
         id="path4495"
         sodipodi:cx="135"
         sodipodi:cy="267.36218"
         sodipodi:rx="5"
         sodipodi:ry="5"
         d="m 133.442,272.11325 c -2.62394,-0.86046 -4.05353,-3.68512 -3.19307,-6.30906 0.86046,-2.62395 3.68512,-4.05353 6.30907,-3.19308 2.62394,0.86046 4.05353,3.68513 3.19307,6.30907 -0.85567,2.60935 -3.65561,4.04029 -6.27161,3.20519"
         sodipodi:start="1.8876718"
         sodipodi:end="8.1629841"
         sodipodi:open="true"
         transform="matrix(0.62664166,0,0,0.62626998,343.71603,415.44452)" />
      <path
         sodipodi:type="arc"
         style="fill:#0000ff;fill-opacity:1;stroke:none"
         id="path4497"
         sodipodi:cx="135"
         sodipodi:cy="267.36218"
         sodipodi:rx="5"
         sodipodi:ry="5"
         d="m 133.442,272.11325 c -2.62394,-0.86046 -4.05353,-3.68512 -3.19307,-6.30906 0.86046,-2.62395 3.68512,-4.05353 6.30907,-3.19308 2.62394,0.86046 4.05353,3.68513 3.19307,6.30907 -0.85567,2.60935 -3.65561,4.04029 -6.27161,3.20519"
         sodipodi:start="1.8876718"
         sodipodi:end="8.1629841"
         sodipodi:open="true"
         transform="matrix(0.62664166,0,0,0.62626998,327.59359,454.78327)" />
      <path
         sodipodi:type="arc"
         style="fill:#0000ff;fill-opacity:1;stroke:none"
         id="path4499"
         sodipodi:cx="135"
         sodipodi:cy="267.36218"
         sodipodi:rx="5"
         sodipodi:ry="5"
         d="m 133.442,272.11325 c -2.62394,-0.86046 -4.05353,-3.68512 -3.19307,-6.30906 0.86046,-2.62395 3.68512,-4.05353 6.30907,-3.19308 2.62394,0.86046 4.05353,3.68513 3.19307,6.30907 -0.85567,2.60935 -3.65561,4.04029 -6.27161,3.20519"
         sodipodi:start="1.8876718"
         sodipodi:end="8.1629841"
         sodipodi:open="true"
         transform="matrix(0.62664166,0,0,0.62626998,490.43021,419.3139)" />
      <path
         transform="matrix(0.62664166,0,0,0.62626998,517.83836,402.22412)"
         sodipodi:open="true"
         sodipodi:end="8.1629841"
         sodipodi:start="1.8876718"
         d="m 133.442,272.11325 c -2.62394,-0.86046 -4.05353,-3.68512 -3.19307,-6.30906 0.86046,-2.62395 3.68512,-4.05353 6.30907,-3.19308 2.62394,0.86046 4.05353,3.68513 3.19307,6.30907 -0.85567,2.60935 -3.65561,4.04029 -6.27161,3.20519"
         sodipodi:ry="5"
         sodipodi:rx="5"
         sodipodi:cy="267.36218"
         sodipodi:cx="135"
         id="path4501"
         style="fill:#0000ff;fill-opacity:1;stroke:none"
         sodipodi:type="arc" />
      <path
         transform="matrix(0.62664166,0,0,0.62626998,486.88328,435.75879)"
         sodipodi:open="true"
         sodipodi:end="8.1629841"
         sodipodi:start="1.8876718"
         d="m 133.442,272.11325 c -2.62394,-0.86046 -4.05353,-3.68512 -3.19307,-6.30906 0.86046,-2.62395 3.68512,-4.05353 6.30907,-3.19308 2.62394,0.86046 4.05353,3.68513 3.19307,6.30907 -0.85567,2.60935 -3.65561,4.04029 -6.27161,3.20519"
         sodipodi:ry="5"
         sodipodi:rx="5"
         sodipodi:cy="267.36218"
         sodipodi:cx="135"
         id="path4503"
         style="fill:#0000ff;fill-opacity:1;stroke:none"
         sodipodi:type="arc" />
      <path
         transform="matrix(0.62664166,0,0,0.62626998,443.35269,399.32208)"
         sodipodi:open="true"
         sodipodi:end="8.1629841"
         sodipodi:start="1.8876718"
         d="m 133.442,272.11325 c -2.62394,-0.86046 -4.05353,-3.68512 -3.19307,-6.30906 0.86046,-2.62395 3.68512,-4.05353 6.30907,-3.19308 2.62394,0.86046 4.05353,3.68513 3.19307,6.30907 -0.85567,2.60935 -3.65561,4.04029 -6.27161,3.20519"
         sodipodi:ry="5"
         sodipodi:rx="5"
         sodipodi:cy="267.36218"
         sodipodi:cx="135"
         id="path4505"
         style="fill:#e580ff;fill-opacity:1;stroke:none"
         sodipodi:type="arc" />
      <path
         sodipodi:type="arc"
         style="fill:#e580ff;fill-opacity:1;stroke:none"
         id="path4507"
         sodipodi:cx="135"
         sodipodi:cy="267.36218"
         sodipodi:rx="5"
         sodipodi:ry="5"
         d="m 133.442,272.11325 c -2.62394,-0.86046 -4.05353,-3.68512 -3.19307,-6.30906 0.86046,-2.62395 3.68512,-4.05353 6.30907,-3.19308 2.62394,0.86046 4.05353,3.68513 3.19307,6.30907 -0.85567,2.60935 -3.65561,4.04029 -6.27161,3.20519"
         sodipodi:start="1.8876718"
         sodipodi:end="8.1629841"
         sodipodi:open="true"
         transform="matrix(0.62664166,0,0,0.62626998,489.46286,458.65265)" />
      <path
         transform="matrix(0.62664166,0,0,0.62626998,493.33225,398.67718)"
         sodipodi:open="true"
         sodipodi:end="8.1629841"
         sodipodi:start="1.8876718"
         d="m 133.442,272.11325 c -2.62394,-0.86046 -4.05353,-3.68512 -3.19307,-6.30906 0.86046,-2.62395 3.68512,-4.05353 6.30907,-3.19308 2.62394,0.86046 4.05353,3.68513 3.19307,6.30907 -0.85567,2.60935 -3.65561,4.04029 -6.27161,3.20519"
         sodipodi:ry="5"
         sodipodi:rx="5"
         sodipodi:cy="267.36218"
         sodipodi:cx="135"
         id="path4509"
         style="fill:#0000ff;fill-opacity:1;stroke:none"
         sodipodi:type="arc" />
      <path
         sodipodi:type="arc"
         style="fill:#e580ff;fill-opacity:1;stroke:none"
         id="path4511"
         sodipodi:cx="135"
         sodipodi:cy="267.36218"
         sodipodi:rx="5"
         sodipodi:ry="5"
         d="m 133.442,272.11325 c -2.62394,-0.86046 -4.05353,-3.68512 -3.19307,-6.30906 0.86046,-2.62395 3.68512,-4.05353 6.30907,-3.19308 2.62394,0.86046 4.05353,3.68513 3.19307,6.30907 -0.85567,2.60935 -3.65561,4.04029 -6.27161,3.20519"
         sodipodi:start="1.8876718"
         sodipodi:end="8.1629841"
         sodipodi:open="true"
         transform="matrix(0.62664166,0,0,0.62626998,508.16489,415.44452)" />
      <path
         transform="matrix(0.62664166,0,0,0.62626998,506.2302,446.3996)"
         sodipodi:open="true"
         sodipodi:end="8.1629841"
         sodipodi:start="1.8876718"
         d="m 133.442,272.11325 c -2.62394,-0.86046 -4.05353,-3.68512 -3.19307,-6.30906 0.86046,-2.62395 3.68512,-4.05353 6.30907,-3.19308 2.62394,0.86046 4.05353,3.68513 3.19307,6.30907 -0.85567,2.60935 -3.65561,4.04029 -6.27161,3.20519"
         sodipodi:ry="5"
         sodipodi:rx="5"
         sodipodi:cy="267.36218"
         sodipodi:cx="135"
         id="path4513"
         style="fill:#e580ff;fill-opacity:1;stroke:none"
         sodipodi:type="arc" />
    </g>
    <g
       id="g4515"
       transform="translate(320.00004,0)">
      <rect
         style="fill:#ffffff;fill-opacity:1;stroke:#000000;stroke-width:1.03742707;stroke-linecap:square;stroke-linejoin:round;stroke-miterlimit:4;stroke-opacity:1;stroke-dasharray:none;stroke-dashoffset:0"
         id="rect4517"
         width="270.25488"
         height="169.50127"
         x="377.68219"
         y="502.70319" />
      <path
         sodipodi:type="arc"
         style="fill:#0000ff;fill-opacity:1;stroke:none"
         id="path4519"
         sodipodi:cx="135"
         sodipodi:cy="267.36218"
         sodipodi:rx="5"
         sodipodi:ry="5"
         d="m 133.442,272.11325 c -2.62394,-0.86046 -4.05353,-3.68512 -3.19307,-6.30906 0.86046,-2.62395 3.68512,-4.05353 6.30907,-3.19308 2.62394,0.86046 4.05353,3.68513 3.19307,6.30907 -0.85567,2.60935 -3.65561,4.04029 -6.27161,3.20519"
         sodipodi:start="1.8876718"
         sodipodi:end="8.1629841"
         sodipodi:open="true"
         transform="matrix(0.62664166,0,0,0.62626998,379.1854,383.52209)" />
      <path
         style="fill:none;stroke:#ff5555;stroke-width:3.13227892;stroke-linecap:round;stroke-linejoin:miter;stroke-miterlimit:4;stroke-opacity:1;stroke-dasharray:none"
         d="m 398.70426,639.95459 c 23.29378,-33.67343 78.82845,-78.54021 125.67304,-80.04688 49.0679,-1.57817 90.81218,38.98466 106.83994,60.61313"
         id="path4521"
         inkscape:connector-curvature="0"
         sodipodi:nodetypes="csc" />
      <path
         transform="matrix(0.62664166,0,0,0.62626998,402.72416,369.65679)"
         sodipodi:open="true"
         sodipodi:end="8.1629841"
         sodipodi:start="1.8876718"
         d="m 133.442,272.11325 c -2.62394,-0.86046 -4.05353,-3.68512 -3.19307,-6.30906 0.86046,-2.62395 3.68512,-4.05353 6.30907,-3.19308 2.62394,0.86046 4.05353,3.68513 3.19307,6.30907 -0.85567,2.60935 -3.65561,4.04029 -6.27161,3.20519"
         sodipodi:ry="5"
         sodipodi:rx="5"
         sodipodi:cy="267.36218"
         sodipodi:cx="135"
         id="path4523"
         style="fill:#0000ff;fill-opacity:1;stroke:none"
         sodipodi:type="arc" />
      <path
         transform="matrix(0.62664166,0,0,0.62626998,374.02622,399.32208)"
         sodipodi:open="true"
         sodipodi:end="8.1629841"
         sodipodi:start="1.8876718"
         d="m 133.442,272.11325 c -2.62394,-0.86046 -4.05353,-3.68512 -3.19307,-6.30906 0.86046,-2.62395 3.68512,-4.05353 6.30907,-3.19308 2.62394,0.86046 4.05353,3.68513 3.19307,6.30907 -0.85567,2.60935 -3.65561,4.04029 -6.27161,3.20519"
         sodipodi:ry="5"
         sodipodi:rx="5"
         sodipodi:cy="267.36218"
         sodipodi:cx="135"
         id="path4525"
         style="fill:#0000ff;fill-opacity:1;stroke:none"
         sodipodi:type="arc" />
      <path
         transform="matrix(0.62664166,0,0,0.62626998,404.9813,391.26086)"
         sodipodi:open="true"
         sodipodi:end="8.1629841"
         sodipodi:start="1.8876718"
         d="m 133.442,272.11325 c -2.62394,-0.86046 -4.05353,-3.68512 -3.19307,-6.30906 0.86046,-2.62395 3.68512,-4.05353 6.30907,-3.19308 2.62394,0.86046 4.05353,3.68513 3.19307,6.30907 -0.85567,2.60935 -3.65561,4.04029 -6.27161,3.20519"
         sodipodi:ry="5"
         sodipodi:rx="5"
         sodipodi:cy="267.36218"
         sodipodi:cx="135"
         id="path4527"
         style="fill:#e580ff;fill-opacity:1;stroke:none"
         sodipodi:type="arc" />
      <path
         sodipodi:type="arc"
         style="fill:#0000ff;fill-opacity:1;stroke:none"
         id="path4529"
         sodipodi:cx="135"
         sodipodi:cy="267.36218"
         sodipodi:rx="5"
         sodipodi:ry="5"
         d="m 133.442,272.11325 c -2.62394,-0.86046 -4.05353,-3.68512 -3.19307,-6.30906 0.86046,-2.62395 3.68512,-4.05353 6.30907,-3.19308 2.62394,0.86046 4.05353,3.68513 3.19307,6.30907 -0.85567,2.60935 -3.65561,4.04029 -6.27161,3.20519"
         sodipodi:start="1.8876718"
         sodipodi:end="8.1629841"
         sodipodi:open="true"
         transform="matrix(0.62664166,0,0,0.62626998,433.35679,372.23638)" />
      <path
         sodipodi:type="arc"
         style="fill:#e580ff;fill-opacity:1;stroke:none"
         id="path4531"
         sodipodi:cx="135"
         sodipodi:cy="267.36218"
         sodipodi:rx="5"
         sodipodi:ry="5"
         d="m 133.442,272.11325 c -2.62394,-0.86046 -4.05353,-3.68512 -3.19307,-6.30906 0.86046,-2.62395 3.68512,-4.05353 6.30907,-3.19308 2.62394,0.86046 4.05353,3.68513 3.19307,6.30907 -0.85567,2.60935 -3.65561,4.04029 -6.27161,3.20519"
         sodipodi:start="1.8876718"
         sodipodi:end="8.1629841"
         sodipodi:open="true"
         transform="matrix(0.62664166,0,0,0.62626998,395.63029,401.25677)" />
      <path
         sodipodi:type="arc"
         style="fill:#e580ff;fill-opacity:1;stroke:none"
         id="path4533"
         sodipodi:cx="135"
         sodipodi:cy="267.36218"
         sodipodi:rx="5"
         sodipodi:ry="5"
         d="m 133.442,272.11325 c -2.62394,-0.86046 -4.05353,-3.68512 -3.19307,-6.30906 0.86046,-2.62395 3.68512,-4.05353 6.30907,-3.19308 2.62394,0.86046 4.05353,3.68513 3.19307,6.30907 -0.85567,2.60935 -3.65561,4.04029 -6.27161,3.20519"
         sodipodi:start="1.8876718"
         sodipodi:end="8.1629841"
         sodipodi:open="true"
         transform="matrix(0.62664166,0,0,0.62626998,461.08738,391.90576)" />
      <path
         transform="matrix(0.62664166,0,0,0.62626998,480.11186,386.42413)"
         sodipodi:open="true"
         sodipodi:end="8.1629841"
         sodipodi:start="1.8876718"
         d="m 133.442,272.11325 c -2.62394,-0.86046 -4.05353,-3.68512 -3.19307,-6.30906 0.86046,-2.62395 3.68512,-4.05353 6.30907,-3.19308 2.62394,0.86046 4.05353,3.68513 3.19307,6.30907 -0.85567,2.60935 -3.65561,4.04029 -6.27161,3.20519"
         sodipodi:ry="5"
         sodipodi:rx="5"
         sodipodi:cy="267.36218"
         sodipodi:cx="135"
         id="path4535"
         style="fill:#0000ff;fill-opacity:1;stroke:none"
         sodipodi:type="arc" />
      <path
         transform="matrix(0.62664166,0,0,0.62626998,455.9282,407.70575)"
         sodipodi:open="true"
         sodipodi:end="8.1629841"
         sodipodi:start="1.8876718"
         d="m 133.442,272.11325 c -2.62394,-0.86046 -4.05353,-3.68512 -3.19307,-6.30906 0.86046,-2.62395 3.68512,-4.05353 6.30907,-3.19308 2.62394,0.86046 4.05353,3.68513 3.19307,6.30907 -0.85567,2.60935 -3.65561,4.04029 -6.27161,3.20519"
         sodipodi:ry="5"
         sodipodi:rx="5"
         sodipodi:cy="267.36218"
         sodipodi:cx="135"
         id="path4537"
         style="fill:#e580ff;fill-opacity:1;stroke:none"
         sodipodi:type="arc" />
      <path
         transform="matrix(0.62664166,0,0,0.62626998,455.2833,435.75879)"
         sodipodi:open="true"
         sodipodi:end="8.1629841"
         sodipodi:start="1.8876718"
         d="m 133.442,272.11325 c -2.62394,-0.86046 -4.05353,-3.68512 -3.19307,-6.30906 0.86046,-2.62395 3.68512,-4.05353 6.30907,-3.19308 2.62394,0.86046 4.05353,3.68513 3.19307,6.30907 -0.85567,2.60935 -3.65561,4.04029 -6.27161,3.20519"
         sodipodi:ry="5"
         sodipodi:rx="5"
         sodipodi:cy="267.36218"
         sodipodi:cx="135"
         id="path4539"
         style="fill:#e580ff;fill-opacity:1;stroke:none"
         sodipodi:type="arc" />
      <path
         sodipodi:type="arc"
         style="fill:#0000ff;fill-opacity:1;stroke:none"
         id="path4541"
         sodipodi:cx="135"
         sodipodi:cy="267.36218"
         sodipodi:rx="5"
         sodipodi:ry="5"
         d="m 133.442,272.11325 c -2.62394,-0.86046 -4.05353,-3.68512 -3.19307,-6.30906 0.86046,-2.62395 3.68512,-4.05353 6.30907,-3.19308 2.62394,0.86046 4.05353,3.68513 3.19307,6.30907 -0.85567,2.60935 -3.65561,4.04029 -6.27161,3.20519"
         sodipodi:start="1.8876718"
         sodipodi:end="8.1629841"
         sodipodi:open="true"
         transform="matrix(0.62664166,0,0,0.62626998,478.82206,421.89349)" />
      <path
         sodipodi:type="arc"
         style="fill:#e580ff;fill-opacity:1;stroke:none"
         id="path4543"
         sodipodi:cx="135"
         sodipodi:cy="267.36218"
         sodipodi:rx="5"
         sodipodi:ry="5"
         d="m 133.442,272.11325 c -2.62394,-0.86046 -4.05353,-3.68512 -3.19307,-6.30906 0.86046,-2.62395 3.68512,-4.05353 6.30907,-3.19308 2.62394,0.86046 4.05353,3.68513 3.19307,6.30907 -0.85567,2.60935 -3.65561,4.04029 -6.27161,3.20519"
         sodipodi:start="1.8876718"
         sodipodi:end="8.1629841"
         sodipodi:open="true"
         transform="matrix(0.62664166,0,0,0.62626998,468.18125,454.46082)" />
      <path
         sodipodi:type="arc"
         style="fill:#e580ff;fill-opacity:1;stroke:none"
         id="path4545"
         sodipodi:cx="135"
         sodipodi:cy="267.36218"
         sodipodi:rx="5"
         sodipodi:ry="5"
         d="m 133.442,272.11325 c -2.62394,-0.86046 -4.05353,-3.68512 -3.19307,-6.30906 0.86046,-2.62395 3.68512,-4.05353 6.30907,-3.19308 2.62394,0.86046 4.05353,3.68513 3.19307,6.30907 -0.85567,2.60935 -3.65561,4.04029 -6.27161,3.20519"
         sodipodi:start="1.8876718"
         sodipodi:end="8.1629841"
         sodipodi:open="true"
         transform="matrix(0.62664166,0,0,0.62626998,518.48326,429.30981)" />
      <path
         transform="matrix(0.62664166,0,0,0.62626998,541.69957,425.76287)"
         sodipodi:open="true"
         sodipodi:end="8.1629841"
         sodipodi:start="1.8876718"
         d="m 133.442,272.11325 c -2.62394,-0.86046 -4.05353,-3.68512 -3.19307,-6.30906 0.86046,-2.62395 3.68512,-4.05353 6.30907,-3.19308 2.62394,0.86046 4.05353,3.68513 3.19307,6.30907 -0.85567,2.60935 -3.65561,4.04029 -6.27161,3.20519"
         sodipodi:ry="5"
         sodipodi:rx="5"
         sodipodi:cy="267.36218"
         sodipodi:cx="135"
         id="path4547"
         style="fill:#0000ff;fill-opacity:1;stroke:none"
         sodipodi:type="arc" />
      <path
         transform="matrix(0.62664166,0,0,0.62626998,530.09141,447.04449)"
         sodipodi:open="true"
         sodipodi:end="8.1629841"
         sodipodi:start="1.8876718"
         d="m 133.442,272.11325 c -2.62394,-0.86046 -4.05353,-3.68512 -3.19307,-6.30906 0.86046,-2.62395 3.68512,-4.05353 6.30907,-3.19308 2.62394,0.86046 4.05353,3.68513 3.19307,6.30907 -0.85567,2.60935 -3.65561,4.04029 -6.27161,3.20519"
         sodipodi:ry="5"
         sodipodi:rx="5"
         sodipodi:cy="267.36218"
         sodipodi:cx="135"
         id="path4549"
         style="fill:#e580ff;fill-opacity:1;stroke:none"
         sodipodi:type="arc" />
      <path
         transform="matrix(0.62664166,0,0,0.62626998,427.87515,386.42413)"
         sodipodi:open="true"
         sodipodi:end="8.1629841"
         sodipodi:start="1.8876718"
         d="m 133.442,272.11325 c -2.62394,-0.86046 -4.05353,-3.68512 -3.19307,-6.30906 0.86046,-2.62395 3.68512,-4.05353 6.30907,-3.19308 2.62394,0.86046 4.05353,3.68513 3.19307,6.30907 -0.85567,2.60935 -3.65561,4.04029 -6.27161,3.20519"
         sodipodi:ry="5"
         sodipodi:rx="5"
         sodipodi:cy="267.36218"
         sodipodi:cx="135"
         id="path4551"
         style="fill:#0000ff;fill-opacity:1;stroke:none"
         sodipodi:type="arc" />
      <path
         sodipodi:type="arc"
         style="fill:#0000ff;fill-opacity:1;stroke:none"
         id="path4553"
         sodipodi:cx="135"
         sodipodi:cy="267.36218"
         sodipodi:rx="5"
         sodipodi:ry="5"
         d="m 133.442,272.11325 c -2.62394,-0.86046 -4.05353,-3.68512 -3.19307,-6.30906 0.86046,-2.62395 3.68512,-4.05353 6.30907,-3.19308 2.62394,0.86046 4.05353,3.68513 3.19307,6.30907 -0.85567,2.60935 -3.65561,4.04029 -6.27161,3.20519"
         sodipodi:start="1.8876718"
         sodipodi:end="8.1629841"
         sodipodi:open="true"
         transform="matrix(0.62664166,0,0,0.62626998,454.31595,371.59148)" />
      <path
         sodipodi:type="arc"
         style="fill:#e580ff;fill-opacity:1;stroke:none"
         id="path4555"
         sodipodi:cx="135"
         sodipodi:cy="267.36218"
         sodipodi:rx="5"
         sodipodi:ry="5"
         d="m 133.442,272.11325 c -2.62394,-0.86046 -4.05353,-3.68512 -3.19307,-6.30906 0.86046,-2.62395 3.68512,-4.05353 6.30907,-3.19308 2.62394,0.86046 4.05353,3.68513 3.19307,6.30907 -0.85567,2.60935 -3.65561,4.04029 -6.27161,3.20519"
         sodipodi:start="1.8876718"
         sodipodi:end="8.1629841"
         sodipodi:open="true"
         transform="matrix(0.62664166,0,0,0.62626998,420.13638,411.57513)" />
      <path
         sodipodi:type="arc"
         style="fill:#e580ff;fill-opacity:1;stroke:none"
         id="path4557"
         sodipodi:cx="135"
         sodipodi:cy="267.36218"
         sodipodi:rx="5"
         sodipodi:ry="5"
         d="m 133.442,272.11325 c -2.62394,-0.86046 -4.05353,-3.68512 -3.19307,-6.30906 0.86046,-2.62395 3.68512,-4.05353 6.30907,-3.19308 2.62394,0.86046 4.05353,3.68513 3.19307,6.30907 -0.85567,2.60935 -3.65561,4.04029 -6.27161,3.20519"
         sodipodi:start="1.8876718"
         sodipodi:end="8.1629841"
         sodipodi:open="true"
         transform="matrix(0.62664166,0,0,0.62626998,358.54867,445.1098)" />
      <path
         transform="matrix(0.62664166,0,0,0.62626998,362.7405,411.57512)"
         sodipodi:open="true"
         sodipodi:end="8.1629841"
         sodipodi:start="1.8876718"
         d="m 133.442,272.11325 c -2.62394,-0.86046 -4.05353,-3.68512 -3.19307,-6.30906 0.86046,-2.62395 3.68512,-4.05353 6.30907,-3.19308 2.62394,0.86046 4.05353,3.68513 3.19307,6.30907 -0.85567,2.60935 -3.65561,4.04029 -6.27161,3.20519"
         sodipodi:ry="5"
         sodipodi:rx="5"
         sodipodi:cy="267.36218"
         sodipodi:cx="135"
         id="path4559"
         style="fill:#0000ff;fill-opacity:1;stroke:none"
         sodipodi:type="arc" />
      <path
         transform="matrix(0.62664166,0,0,0.62626998,336.2997,439.30572)"
         sodipodi:open="true"
         sodipodi:end="8.1629841"
         sodipodi:start="1.8876718"
         d="m 133.442,272.11325 c -2.62394,-0.86046 -4.05353,-3.68512 -3.19307,-6.30906 0.86046,-2.62395 3.68512,-4.05353 6.30907,-3.19308 2.62394,0.86046 4.05353,3.68513 3.19307,6.30907 -0.85567,2.60935 -3.65561,4.04029 -6.27161,3.20519"
         sodipodi:ry="5"
         sodipodi:rx="5"
         sodipodi:cy="267.36218"
         sodipodi:cx="135"
         id="path4561"
         style="fill:#0000ff;fill-opacity:1;stroke:none"
         sodipodi:type="arc" />
      <path
         transform="matrix(0.62664166,0,0,0.62626998,372.41397,436.40369)"
         sodipodi:open="true"
         sodipodi:end="8.1629841"
         sodipodi:start="1.8876718"
         d="m 133.442,272.11325 c -2.62394,-0.86046 -4.05353,-3.68512 -3.19307,-6.30906 0.86046,-2.62395 3.68512,-4.05353 6.30907,-3.19308 2.62394,0.86046 4.05353,3.68513 3.19307,6.30907 -0.85567,2.60935 -3.65561,4.04029 -6.27161,3.20519"
         sodipodi:ry="5"
         sodipodi:rx="5"
         sodipodi:cy="267.36218"
         sodipodi:cx="135"
         id="path4563"
         style="fill:#e580ff;fill-opacity:1;stroke:none"
         sodipodi:type="arc" />
      <path
         sodipodi:type="arc"
         style="fill:#e580ff;fill-opacity:1;stroke:none"
         id="path4565"
         sodipodi:cx="135"
         sodipodi:cy="267.36218"
         sodipodi:rx="5"
         sodipodi:ry="5"
         d="m 133.442,272.11325 c -2.62394,-0.86046 -4.05353,-3.68512 -3.19307,-6.30906 0.86046,-2.62395 3.68512,-4.05353 6.30907,-3.19308 2.62394,0.86046 4.05353,3.68513 3.19307,6.30907 -0.85567,2.60935 -3.65561,4.04029 -6.27161,3.20519"
         sodipodi:start="1.8876718"
         sodipodi:end="8.1629841"
         sodipodi:open="true"
         transform="matrix(0.62664166,0,0,0.62626998,386.60171,424.15063)" />
      <path
         sodipodi:type="arc"
         style="fill:#0000ff;fill-opacity:1;stroke:none"
         id="path4567"
         sodipodi:cx="135"
         sodipodi:cy="267.36218"
         sodipodi:rx="5"
         sodipodi:ry="5"
         d="m 133.442,272.11325 c -2.62394,-0.86046 -4.05353,-3.68512 -3.19307,-6.30906 0.86046,-2.62395 3.68512,-4.05353 6.30907,-3.19308 2.62394,0.86046 4.05353,3.68513 3.19307,6.30907 -0.85567,2.60935 -3.65561,4.04029 -6.27161,3.20519"
         sodipodi:start="1.8876718"
         sodipodi:end="8.1629841"
         sodipodi:open="true"
         transform="matrix(0.62664166,0,0,0.62626998,313.40584,463.81183)" />
      <path
         sodipodi:type="arc"
         style="fill:#e580ff;fill-opacity:1;stroke:none"
         id="path4569"
         sodipodi:cx="135"
         sodipodi:cy="267.36218"
         sodipodi:rx="5"
         sodipodi:ry="5"
         d="m 133.442,272.11325 c -2.62394,-0.86046 -4.05353,-3.68512 -3.19307,-6.30906 0.86046,-2.62395 3.68512,-4.05353 6.30907,-3.19308 2.62394,0.86046 4.05353,3.68513 3.19307,6.30907 -0.85567,2.60935 -3.65561,4.04029 -6.27161,3.20519"
         sodipodi:start="1.8876718"
         sodipodi:end="8.1629841"
         sodipodi:open="true"
         transform="matrix(0.62664166,0,0,0.62626998,345.32828,464.77918)" />
      <path
         transform="matrix(0.62664166,0,0,0.62626998,343.71603,415.44452)"
         sodipodi:open="true"
         sodipodi:end="8.1629841"
         sodipodi:start="1.8876718"
         d="m 133.442,272.11325 c -2.62394,-0.86046 -4.05353,-3.68512 -3.19307,-6.30906 0.86046,-2.62395 3.68512,-4.05353 6.30907,-3.19308 2.62394,0.86046 4.05353,3.68513 3.19307,6.30907 -0.85567,2.60935 -3.65561,4.04029 -6.27161,3.20519"
         sodipodi:ry="5"
         sodipodi:rx="5"
         sodipodi:cy="267.36218"
         sodipodi:cx="135"
         id="path4571"
         style="fill:#0000ff;fill-opacity:1;stroke:none"
         sodipodi:type="arc" />
      <path
         transform="matrix(0.62664166,0,0,0.62626998,327.59359,454.78327)"
         sodipodi:open="true"
         sodipodi:end="8.1629841"
         sodipodi:start="1.8876718"
         d="m 133.442,272.11325 c -2.62394,-0.86046 -4.05353,-3.68512 -3.19307,-6.30906 0.86046,-2.62395 3.68512,-4.05353 6.30907,-3.19308 2.62394,0.86046 4.05353,3.68513 3.19307,6.30907 -0.85567,2.60935 -3.65561,4.04029 -6.27161,3.20519"
         sodipodi:ry="5"
         sodipodi:rx="5"
         sodipodi:cy="267.36218"
         sodipodi:cx="135"
         id="path4573"
         style="fill:#0000ff;fill-opacity:1;stroke:none"
         sodipodi:type="arc" />
      <path
         transform="matrix(0.62664166,0,0,0.62626998,490.43021,419.3139)"
         sodipodi:open="true"
         sodipodi:end="8.1629841"
         sodipodi:start="1.8876718"
         d="m 133.442,272.11325 c -2.62394,-0.86046 -4.05353,-3.68512 -3.19307,-6.30906 0.86046,-2.62395 3.68512,-4.05353 6.30907,-3.19308 2.62394,0.86046 4.05353,3.68513 3.19307,6.30907 -0.85567,2.60935 -3.65561,4.04029 -6.27161,3.20519"
         sodipodi:ry="5"
         sodipodi:rx="5"
         sodipodi:cy="267.36218"
         sodipodi:cx="135"
         id="path4575"
         style="fill:#0000ff;fill-opacity:1;stroke:none"
         sodipodi:type="arc" />
      <path
         sodipodi:type="arc"
         style="fill:#0000ff;fill-opacity:1;stroke:none"
         id="path4577"
         sodipodi:cx="135"
         sodipodi:cy="267.36218"
         sodipodi:rx="5"
         sodipodi:ry="5"
         d="m 133.442,272.11325 c -2.62394,-0.86046 -4.05353,-3.68512 -3.19307,-6.30906 0.86046,-2.62395 3.68512,-4.05353 6.30907,-3.19308 2.62394,0.86046 4.05353,3.68513 3.19307,6.30907 -0.85567,2.60935 -3.65561,4.04029 -6.27161,3.20519"
         sodipodi:start="1.8876718"
         sodipodi:end="8.1629841"
         sodipodi:open="true"
         transform="matrix(0.62664166,0,0,0.62626998,517.83836,402.22412)" />
      <path
         sodipodi:type="arc"
         style="fill:#0000ff;fill-opacity:1;stroke:none"
         id="path4579"
         sodipodi:cx="135"
         sodipodi:cy="267.36218"
         sodipodi:rx="5"
         sodipodi:ry="5"
         d="m 133.442,272.11325 c -2.62394,-0.86046 -4.05353,-3.68512 -3.19307,-6.30906 0.86046,-2.62395 3.68512,-4.05353 6.30907,-3.19308 2.62394,0.86046 4.05353,3.68513 3.19307,6.30907 -0.85567,2.60935 -3.65561,4.04029 -6.27161,3.20519"
         sodipodi:start="1.8876718"
         sodipodi:end="8.1629841"
         sodipodi:open="true"
         transform="matrix(0.62664166,0,0,0.62626998,486.88328,435.75879)" />
      <path
         sodipodi:type="arc"
         style="fill:#e580ff;fill-opacity:1;stroke:none"
         id="path4581"
         sodipodi:cx="135"
         sodipodi:cy="267.36218"
         sodipodi:rx="5"
         sodipodi:ry="5"
         d="m 133.442,272.11325 c -2.62394,-0.86046 -4.05353,-3.68512 -3.19307,-6.30906 0.86046,-2.62395 3.68512,-4.05353 6.30907,-3.19308 2.62394,0.86046 4.05353,3.68513 3.19307,6.30907 -0.85567,2.60935 -3.65561,4.04029 -6.27161,3.20519"
         sodipodi:start="1.8876718"
         sodipodi:end="8.1629841"
         sodipodi:open="true"
         transform="matrix(0.62664166,0,0,0.62626998,443.35269,399.32208)" />
      <path
         transform="matrix(0.62664166,0,0,0.62626998,489.46286,458.65265)"
         sodipodi:open="true"
         sodipodi:end="8.1629841"
         sodipodi:start="1.8876718"
         d="m 133.442,272.11325 c -2.62394,-0.86046 -4.05353,-3.68512 -3.19307,-6.30906 0.86046,-2.62395 3.68512,-4.05353 6.30907,-3.19308 2.62394,0.86046 4.05353,3.68513 3.19307,6.30907 -0.85567,2.60935 -3.65561,4.04029 -6.27161,3.20519"
         sodipodi:ry="5"
         sodipodi:rx="5"
         sodipodi:cy="267.36218"
         sodipodi:cx="135"
         id="path4583"
         style="fill:#e580ff;fill-opacity:1;stroke:none"
         sodipodi:type="arc" />
      <path
         sodipodi:type="arc"
         style="fill:#0000ff;fill-opacity:1;stroke:none"
         id="path4585"
         sodipodi:cx="135"
         sodipodi:cy="267.36218"
         sodipodi:rx="5"
         sodipodi:ry="5"
         d="m 133.442,272.11325 c -2.62394,-0.86046 -4.05353,-3.68512 -3.19307,-6.30906 0.86046,-2.62395 3.68512,-4.05353 6.30907,-3.19308 2.62394,0.86046 4.05353,3.68513 3.19307,6.30907 -0.85567,2.60935 -3.65561,4.04029 -6.27161,3.20519"
         sodipodi:start="1.8876718"
         sodipodi:end="8.1629841"
         sodipodi:open="true"
         transform="matrix(0.62664166,0,0,0.62626998,493.33225,398.67718)" />
      <path
         transform="matrix(0.62664166,0,0,0.62626998,508.16489,415.44452)"
         sodipodi:open="true"
         sodipodi:end="8.1629841"
         sodipodi:start="1.8876718"
         d="m 133.442,272.11325 c -2.62394,-0.86046 -4.05353,-3.68512 -3.19307,-6.30906 0.86046,-2.62395 3.68512,-4.05353 6.30907,-3.19308 2.62394,0.86046 4.05353,3.68513 3.19307,6.30907 -0.85567,2.60935 -3.65561,4.04029 -6.27161,3.20519"
         sodipodi:ry="5"
         sodipodi:rx="5"
         sodipodi:cy="267.36218"
         sodipodi:cx="135"
         id="path4587"
         style="fill:#e580ff;fill-opacity:1;stroke:none"
         sodipodi:type="arc" />
      <path
         sodipodi:type="arc"
         style="fill:#e580ff;fill-opacity:1;stroke:none"
         id="path4589"
         sodipodi:cx="135"
         sodipodi:cy="267.36218"
         sodipodi:rx="5"
         sodipodi:ry="5"
         d="m 133.442,272.11325 c -2.62394,-0.86046 -4.05353,-3.68512 -3.19307,-6.30906 0.86046,-2.62395 3.68512,-4.05353 6.30907,-3.19308 2.62394,0.86046 4.05353,3.68513 3.19307,6.30907 -0.85567,2.60935 -3.65561,4.04029 -6.27161,3.20519"
         sodipodi:start="1.8876718"
         sodipodi:end="8.1629841"
         sodipodi:open="true"
         transform="matrix(0.62664166,0,0,0.62626998,506.2302,446.3996)" />
    </g>
  </g>
</svg>
